<svg width="29" height="29" viewBox="0 0 29 29" fill="none" xmlns="http://www.w3.org/2000/svg">
<path d="M23.0773 1.33938C25.8914 0.0235053 28.8958 2.7647 27.7498 5.60251L19.5626 25.8759C18.4711 28.5788 14.6231 28.7408 13.2982 26.1396L9.4375 19.5625L3.11195 16.8787C0.373213 15.7621 0.275158 12.0017 2.95214 10.75L23.0773 1.33938Z" fill="white"/>
<path d="M9.4375 19.5625L13.2982 26.1396C14.6231 28.7408 18.4711 28.5788 19.5626 25.8759L27.7498 5.60251C28.8958 2.7647 25.8914 0.0235054 23.0773 1.33938L2.95214 10.75C0.275158 12.0017 0.373213 15.7621 3.11195 16.8787L9.4375 19.5625ZM9.4375 19.5625L19.5626 10.75" stroke="#1E9EFF" stroke-width="2" stroke-linecap="round" stroke-linejoin="round"/>
</svg>
