<svg width="21" height="24" viewBox="0 0 21 24" fill="none" xmlns="http://www.w3.org/2000/svg">
<path d="M18.375 17.5V8C18.375 6.89543 17.4796 6 16.375 6H4.625C3.52043 6 2.625 6.89543 2.625 8V17.5M18.375 17.5V19C18.375 20.1046 17.4796 21 16.375 21H4.625C3.52043 21 2.625 20.1046 2.625 19V17.5M18.375 17.5H2.625" stroke="#BABABA" stroke-width="2"/>
<path d="M7.80398 15V10.597L8.38969 11.171H6.9082V10.1H9.16833V15H7.80398Z" fill="#BABABA"/>
<path d="M12.1263 15.098C11.6761 15.098 11.2833 15.007 10.948 14.825C10.6172 14.643 10.3577 14.3723 10.1694 14.013C9.9856 13.6536 9.89373 13.2103 9.89373 12.683C9.89373 12.1136 10.0017 11.6306 10.2176 11.234C10.4381 10.8326 10.739 10.527 11.1203 10.317C11.5061 10.107 11.9517 10.002 12.457 10.002C12.7281 10.002 12.9876 10.0346 13.2357 10.1C13.4883 10.1606 13.7019 10.247 13.8765 10.359L13.3804 11.353C13.2426 11.255 13.0979 11.1896 12.9463 11.157C12.7993 11.1196 12.6477 11.101 12.4915 11.101C12.1194 11.101 11.8208 11.2153 11.5957 11.444C11.3752 11.6726 11.265 12.0063 11.265 12.445C11.265 12.5243 11.265 12.6083 11.265 12.697C11.2696 12.781 11.2787 12.8673 11.2925 12.956L10.948 12.669C11.0399 12.4963 11.1501 12.3516 11.2787 12.235C11.412 12.1183 11.5681 12.0296 11.7473 11.969C11.9311 11.9083 12.1355 11.878 12.3606 11.878C12.6638 11.878 12.9394 11.9433 13.1874 12.074C13.4401 12.2 13.6422 12.3796 13.7938 12.613C13.9454 12.8416 14.0212 13.1123 14.0212 13.425C14.0212 13.7656 13.9362 14.062 13.7663 14.314C13.5963 14.5613 13.3689 14.755 13.0841 14.895C12.7993 15.0303 12.48 15.098 12.1263 15.098ZM12.0436 14.111C12.1722 14.111 12.2848 14.0853 12.3812 14.034C12.4823 13.9826 12.5604 13.9103 12.6155 13.817C12.6706 13.7236 12.6982 13.614 12.6982 13.488C12.6982 13.3013 12.6362 13.152 12.5122 13.04C12.3927 12.928 12.2342 12.872 12.0367 12.872C11.9035 12.872 11.7864 12.8976 11.6853 12.949C11.5888 13.0003 11.5107 13.0726 11.451 13.166C11.3959 13.2593 11.3683 13.369 11.3683 13.495C11.3683 13.6163 11.3959 13.7236 11.451 13.817C11.5061 13.9056 11.5842 13.978 11.6853 14.034C11.7864 14.0853 11.9058 14.111 12.0436 14.111Z" fill="#BABABA"/>
<line x1="6.54688" y1="8" x2="6.54688" y2="4" stroke="#BABABA" stroke-width="2" stroke-linecap="round"/>
<line x1="14.4219" y1="8" x2="14.4219" y2="4" stroke="#BABABA" stroke-width="2" stroke-linecap="round"/>
</svg>
