<svg width="50" height="50" viewBox="0 0 50 50" fill="none" xmlns="http://www.w3.org/2000/svg">
<path d="M43.75 37.5833V15.0681C43.75 13.9635 42.8546 13.0681 41.75 13.0681H24.8625C24.2877 13.0681 23.7407 12.8208 23.361 12.3894L20.389 9.012C20.0093 8.58052 19.4623 8.33325 18.8875 8.33325H8.25C7.14543 8.33325 6.25 9.22868 6.25 10.3333V13.0681V37.5833C6.25 38.6878 7.14543 39.5833 8.25 39.5833H41.75C42.8546 39.5833 43.75 38.6878 43.75 37.5833Z" stroke="white" stroke-opacity="0.7" stroke-width="2"/>
<path d="M31.25 25C31.25 28.4518 28.4518 31.25 25 31.25C21.5482 31.25 18.75 28.4518 18.75 25C18.75 21.5482 21.5482 18.75 25 18.75C28.4518 18.75 31.25 21.5482 31.25 25Z" stroke="white" stroke-opacity="0.7" stroke-width="2"/>
<path d="M12.5 14.5833H16.6667" stroke="white" stroke-opacity="0.7" stroke-width="2" stroke-linecap="round"/>
</svg>
