<svg width="33" height="33" viewBox="0 0 33 33" fill="none" xmlns="http://www.w3.org/2000/svg">
<path d="M12.375 28.875H20.625M24.75 13.4062V15.4687C24.75 20.0062 21.0375 23.7187 16.5 23.7187M16.5 23.7187C11.9625 23.7187 8.25 20.0062 8.25 15.4687V13.4062M16.5 23.7187V28.875" stroke="white" stroke-width="3.125" stroke-miterlimit="10" stroke-linecap="square"/>
<path d="M16.5 20.625C15.8194 20.6234 15.1461 20.4851 14.52 20.2183C13.8939 19.9515 13.3277 19.5616 12.8552 19.0717C11.8879 18.0961 11.3447 16.7782 11.3438 15.4043V8.25004C11.3411 7.57217 11.4727 6.90048 11.7309 6.27371C11.9891 5.64693 12.3688 5.07746 12.8481 4.59813C13.3275 4.1188 13.8969 3.73909 14.5237 3.4809C15.1505 3.22271 15.8222 3.09115 16.5 3.09379C19.3914 3.09379 21.6563 5.35867 21.6563 8.25004V15.4043C21.6563 18.2828 19.3431 20.625 16.5 20.625Z" fill="white"/>
</svg>
