<svg width="31" height="31" viewBox="0 0 31 31" fill="none" xmlns="http://www.w3.org/2000/svg">
<path d="M7.31849 0.909244C6.4709 0.0616515 5.06904 0.14242 4.3884 1.12911C2.34805 4.0869 0.105469 8.30889 0.105469 12.5358C0.105469 16.7884 2.78236 19.4713 5.54884 22.244C5.99124 22.6874 6.436 23.1332 6.87241 23.588C7.1969 23.9261 7.51859 24.2675 7.83974 24.6083C10.8253 27.7767 13.7635 30.8949 18.4646 30.8949C22.9504 30.8949 27.0604 29.286 30.2492 26.6139C31.0848 25.9137 31.0669 24.6576 30.296 23.8867L25.4864 19.0771C24.7053 18.2961 23.439 18.2961 22.6579 19.0771L20.4356 21.2994C19.6545 22.0805 18.3882 22.0805 17.6072 21.2994L10.6992 14.3915C9.91817 13.6104 9.91817 12.3441 10.6992 11.5631L12.9215 9.34072C13.7026 8.55968 13.7026 7.29335 12.9215 6.5123L7.31849 0.909244Z" fill="#1E9EFF"/>
</svg>
